# xmcd CD database file
#
# Track frame offsets:
#	150
#	18069
#	34463
#	50418
#	65499
#	81635
#	100275
#	118313
#	139071
#
# Disc length: 2056 seconds
#
# Revision: 0
# Processed by: cddbd v1.5.2PL0 Copyright (c) Steve Scherf et al.
# Submitted via: CDex 1.70beta2
#
DISCID=80080609
DTITLE=Lakshmi Clegg - Artistic Sounds of Jazz and Blues
DYEAR=2009
DGENRE=Jazz
TTITLE0=Ocean Waves On A High Cliff
TTITLE1=Wanna Sway
TTITLE2=In Mexico
TTITLE3=We're Making Love
TTITLE4=Blood Roaming Through Your Veins
TTITLE5=Everybody Loves Money
TTITLE6=My X's
TTITLE7=Beautiful Creature
TTITLE8=I Know What Love Is
EXTD=YEAR: 2009
EXTT0=
EXTT1=
EXTT2=
EXTT3=
EXTT4=
EXTT5=
EXTT6=
EXTT7=
EXTT8=
PLAYORDER=
